HIERARCHY
ROOT Hips
{
	OFFSET 0.000000 121.760803 0.000000
	CHANNELS 6 Xposition Yposition Zposition Xrotation Yrotation Zrotation 
	JOINT Spine
	{
		OFFSET 0.072000 7.257294 -0.789700
		CHANNELS 3 Xrotation Yrotation Zrotation
		JOINT Spine1
		{
			OFFSET 0.000000 12.508769 -0.658067
			CHANNELS 3 Xrotation Yrotation Zrotation
			JOINT Spine1_split
			{
				OFFSET 0.000000 12.508769 -0.658067
				CHANNELS 3 Xrotation Yrotation Zrotation
				JOINT Spine2
				{
					OFFSET 0.000000 12.508769 -0.658067
					CHANNELS 3 Xrotation Yrotation Zrotation
					JOINT Neck
					{
						OFFSET 0.000000 14.033295 7.520400
						CHANNELS 3 Xrotation Yrotation Zrotation
						JOINT Head
						{
							OFFSET 0.000000 8.198502 5.703100
							CHANNELS 3 Xrotation Yrotation Zrotation
							JOINT HeadTop_End
							{
								OFFSET 0.000000 17.760803 13.332701
								CHANNELS 3 Xrotation Yrotation Zrotation
								End Site
								{
									OFFSET 0.000000 0.000000 0.000000
								}
							}
						}
					}
					JOINT LeftShoulder
					{
						OFFSET 6.292450 5.785301 -0.669000
						CHANNELS 3 Xrotation Yrotation Zrotation
						JOINT LeftShoulder_split
						{
							OFFSET 6.292450 5.785301 -0.669000
							CHANNELS 3 Xrotation Yrotation Zrotation
							JOINT LeftArm
							{
								OFFSET 13.907140 -6.093903 1.965100
								CHANNELS 3 Xrotation Yrotation Zrotation
								JOINT LeftForeArm
								{
									OFFSET 34.140198 0.000000 0.000000
									CHANNELS 3 Xrotation Yrotation Zrotation
									JOINT LeftHand
									{
										OFFSET 40.960209 0.000000 0.000000
										CHANNELS 3 Xrotation Yrotation Zrotation
										JOINT LeftHandThumb1
										{
											OFFSET 10.006996 -7.170425 9.573125
											CHANNELS 3 Xrotation Yrotation Zrotation
											JOINT LeftHandThumb2
											{
												OFFSET 1.835007 -1.059448 1.059443
												CHANNELS 3 Xrotation Yrotation Zrotation
												JOINT LeftHandThumb3
												{
													OFFSET 2.112267 -1.219513 1.219518
													CHANNELS 3 Xrotation Yrotation Zrotation
													JOINT LeftHandThumb4
													{
														OFFSET 4.843811 -2.796570 2.796576
														CHANNELS 3 Xrotation Yrotation Zrotation
														End Site
														{
															OFFSET 0.000000 0.000000 0.000000
														}
													}
												}
											}
										}
										JOINT LeftHandIndex1
										{
											OFFSET 18.389847 -0.922348 4.596882
											CHANNELS 3 Xrotation Yrotation Zrotation
											JOINT LeftHandIndex2
											{
												OFFSET 4.711273 0.000000 0.000000
												CHANNELS 3 Xrotation Yrotation Zrotation
												JOINT LeftHandIndex3
												{
													OFFSET 2.886131 0.000000 0.000000
													CHANNELS 3 Xrotation Yrotation Zrotation
													JOINT LeftHandIndex4
													{
														OFFSET 6.145912 0.000000 0.000000
														CHANNELS 3 Xrotation Yrotation Zrotation
														End Site
														{
															OFFSET 0.000000 0.000000 0.000000
														}
													}
												}
											}
										}
										JOINT LeftHandMiddle1
										{
											OFFSET 18.013008 0.000000 0.000000
											CHANNELS 3 Xrotation Yrotation Zrotation
											JOINT LeftHandMiddle2
											{
												OFFSET 4.946693 0.000000 0.000000
												CHANNELS 3 Xrotation Yrotation Zrotation
												JOINT LeftHandMiddle3
												{
													OFFSET 3.342232 0.000000 0.000000
													CHANNELS 3 Xrotation Yrotation Zrotation
													JOINT LeftHandMiddle4
													{
														OFFSET 4.461754 0.000000 0.000000
														CHANNELS 3 Xrotation Yrotation Zrotation
														End Site
														{
															OFFSET 0.000000 0.000000 0.000000
														}
													}
												}
											}
										}
										JOINT LeftHandRing1
										{
											OFFSET 15.849892 -0.102921 -4.126150
											CHANNELS 3 Xrotation Yrotation Zrotation
											JOINT LeftHandRing2
											{
												OFFSET 3.527054 0.000000 0.000000
												CHANNELS 3 Xrotation Yrotation Zrotation
												JOINT LeftHandRing3
												{
													OFFSET 2.961098 0.000000 0.000000
													CHANNELS 3 Xrotation Yrotation Zrotation
													JOINT LeftHandRing4
													{
														OFFSET 4.927200 0.000000 0.000000
														CHANNELS 3 Xrotation Yrotation Zrotation
														End Site
														{
															OFFSET 0.000000 0.000000 0.000000
														}
													}
												}
											}
										}
										JOINT LeftHandPinky1
										{
											OFFSET 12.791824 -0.832031 -6.799156
											CHANNELS 3 Xrotation Yrotation Zrotation
											JOINT LeftHandPinky2
											{
												OFFSET 3.327133 0.000000 0.000000
												CHANNELS 3 Xrotation Yrotation Zrotation
												JOINT LeftHandPinky3
												{
													OFFSET 3.014900 0.000000 0.000000
													CHANNELS 3 Xrotation Yrotation Zrotation
													JOINT LeftHandPinky4
													{
														OFFSET 5.847786 0.000000 0.000000
														CHANNELS 3 Xrotation Yrotation Zrotation
														End Site
														{
															OFFSET 0.000000 0.000000 0.000000
														}
													}
												}
											}
										}
									}
								}
							}
						}
					}
					JOINT RightShoulder
					{
						OFFSET -6.292450 5.785301 -0.669000
						CHANNELS 3 Xrotation Yrotation Zrotation
						JOINT RightShoulder_split
						{
							OFFSET -6.292450 5.785301 -0.669000
							CHANNELS 3 Xrotation Yrotation Zrotation
							JOINT RightArm
							{
								OFFSET -13.907140 -6.093903 1.965100
								CHANNELS 3 Xrotation Yrotation Zrotation
								JOINT RightForeArm
								{
									OFFSET -34.140198 0.000000 0.000000
									CHANNELS 3 Xrotation Yrotation Zrotation
									JOINT RightHand
									{
										OFFSET -40.960209 0.000000 0.000000
										CHANNELS 3 Xrotation Yrotation Zrotation
										JOINT RightHandThumb1
										{
											OFFSET -10.007050 -7.170456 9.573117
											CHANNELS 3 Xrotation Yrotation Zrotation
											JOINT RightHandThumb2
											{
												OFFSET -1.835007 -1.059448 1.059443
												CHANNELS 3 Xrotation Yrotation Zrotation
												JOINT RightHandThumb3
												{
													OFFSET -2.112267 -1.219513 1.219518
													CHANNELS 3 Xrotation Yrotation Zrotation
													JOINT RightHandThumb4
													{
														OFFSET -4.843834 -2.796585 2.796590
														CHANNELS 3 Xrotation Yrotation Zrotation
														End Site
														{
															OFFSET 0.000000 0.000000 0.000000
														}
													}
												}
											}
										}
										JOINT RightHandIndex1
										{
											OFFSET -18.389870 -0.922424 4.596786
											CHANNELS 3 Xrotation Yrotation Zrotation
											JOINT RightHandIndex2
											{
												OFFSET -4.711273 0.000000 0.000000
												CHANNELS 3 Xrotation Yrotation Zrotation
												JOINT RightHandIndex3
												{
													OFFSET -2.886131 0.000000 0.000000
													CHANNELS 3 Xrotation Yrotation Zrotation
													JOINT RightHandIndex4
													{
														OFFSET -6.145920 0.000000 0.000000
														CHANNELS 3 Xrotation Yrotation Zrotation
														End Site
														{
															OFFSET 0.000000 0.000000 0.000000
														}
													}
												}
											}
										}
										JOINT RightHandMiddle1
										{
											OFFSET -18.013008 0.000000 0.000000
											CHANNELS 3 Xrotation Yrotation Zrotation
											JOINT RightHandMiddle2
											{
												OFFSET -4.946693 0.000000 0.000000
												CHANNELS 3 Xrotation Yrotation Zrotation
												JOINT RightHandMiddle3
												{
													OFFSET -3.342232 0.000000 0.000000
													CHANNELS 3 Xrotation Yrotation Zrotation
													JOINT RightHandMiddle4
													{
														OFFSET -4.461754 0.000000 0.000000
														CHANNELS 3 Xrotation Yrotation Zrotation
														End Site
														{
															OFFSET 0.000000 0.000000 0.000000
														}
													}
												}
											}
										}
										JOINT RightHandRing1
										{
											OFFSET -15.849876 -0.102936 -4.126237
											CHANNELS 3 Xrotation Yrotation Zrotation
											JOINT RightHandRing2
											{
												OFFSET -3.527054 0.000000 0.000000
												CHANNELS 3 Xrotation Yrotation Zrotation
												JOINT RightHandRing3
												{
													OFFSET -2.961098 0.000000 0.000000
													CHANNELS 3 Xrotation Yrotation Zrotation
													JOINT RightHandRing4
													{
														OFFSET -4.927200 0.000000 0.000000
														CHANNELS 3 Xrotation Yrotation Zrotation
														End Site
														{
															OFFSET 0.000000 0.000000 0.000000
														}
													}
												}
											}
										}
										JOINT RightHandPinky1
										{
											OFFSET -12.791786 -0.832077 -6.799222
											CHANNELS 3 Xrotation Yrotation Zrotation
											JOINT RightHandPinky2
											{
												OFFSET -3.327133 0.000000 0.000000
												CHANNELS 3 Xrotation Yrotation Zrotation
												JOINT RightHandPinky3
												{
													OFFSET -3.014900 0.000000 0.000000
													CHANNELS 3 Xrotation Yrotation Zrotation
													JOINT RightHandPinky4
													{
														OFFSET -5.847786 0.000000 0.000000
														CHANNELS 3 Xrotation Yrotation Zrotation
														End Site
														{
															OFFSET 0.000000 0.000000 0.000000
														}
													}
												}
											}
										}
									}
								}
							}
						}
					}
				}
			}
		}
	}
	JOINT LeftUpLeg
	{
		OFFSET 13.026900 -6.336304 -1.092800
		CHANNELS 3 Xrotation Yrotation Zrotation
		JOINT LeftLeg
		{
			OFFSET 0.524474 -46.096886 9.782700
			CHANNELS 3 Xrotation Yrotation Zrotation
			JOINT LeftFoot
			{
				OFFSET -0.524474 -53.427422 -12.948200
				CHANNELS 3 Xrotation Yrotation Zrotation
				JOINT LeftToeBase
				{
					OFFSET 0.192200 -14.009700 16.364100
					CHANNELS 3 Xrotation Yrotation Zrotation
					JOINT LeftToe_End
					{
						OFFSET -1.784700 -0.561700 9.474800
						CHANNELS 3 Xrotation Yrotation Zrotation
						End Site
						{
							OFFSET 0.000000 0.000000 0.000000
						}
					}
				}
			}
		}
	}
	JOINT RightUpLeg
	{
		OFFSET -12.883000 -6.336304 -1.092800
		CHANNELS 3 Xrotation Yrotation Zrotation
		JOINT RightLeg
		{
			OFFSET -0.524587 -46.096825 9.782800
			CHANNELS 3 Xrotation Yrotation Zrotation
			JOINT RightFoot
			{
				OFFSET 0.524587 -53.427383 -12.948300
				CHANNELS 3 Xrotation Yrotation Zrotation
				JOINT RightToeBase
				{
					OFFSET -0.192200 -14.009700 16.364100
					CHANNELS 3 Xrotation Yrotation Zrotation
					JOINT RightToe_End
					{
						OFFSET 1.784700 -0.561700 9.474800
						CHANNELS 3 Xrotation Yrotation Zrotation
						End Site
						{
							OFFSET 0.000000 0.000000 0.000000
						}
					}
				}
			}
		}
	}
}
MOTION
Frames: 4
Frame Time: 0.016667
0.454424 146.669647 8.472164 3.669199 -36.395933 3.951840 31.614381 -5.837343 -10.380120 14.129389 0.964741 -3.082682 0.000000 0.000000 0.000000 14.083558 0.916928 -3.297928 -8.677495 21.443475 -12.816595 -25.381082 13.620605 5.249197 0.000002 0.000000 0.000000 11.474072 -16.374147 4.408439 0.000000 0.000000 0.000000 -62.668816 -4.844720 -3.758209 45.767633 -24.019414 29.511120 -12.970307 31.805927 18.858164 40.109920 -15.297098 -0.360434 5.639829 28.097624 11.338685 1.088580 40.896751 22.734020 0.000000 -0.000002 0.000000 6.882234 2.840051 -61.140411 8.247932 7.639978 -89.897959 2.146319 8.173661 -41.827764 -0.000000 -0.000001 0.000001 -2.345516 4.688838 -62.655320 8.754099 9.897123 -87.051116 1.995385 4.929276 -37.483310 0.000002 -0.000001 -0.000000 -9.042534 10.045654 -60.766322 8.524073 9.508822 -66.893076 6.576492 9.896706 -70.384976 0.000004 0.000001 0.000002 -17.946949 14.754954 -51.485809 8.868426 8.667069 -84.811948 4.540356 8.852507 -59.153038 -0.000000 -0.000002 -0.000001 18.189205 24.092147 -9.603799 0.000000 0.000000 0.000000 -33.453126 6.374208 2.980969 -41.939219 39.311133 29.275881 -2.634154 7.017187 -19.613192 -1.525704 -5.490524 13.054246 1.517211 -22.702495 -8.022595 -6.615016 18.786681 8.531371 -0.000001 -0.000000 0.000001 1.275683 4.855663 -8.441561 0.521785 0.316509 6.397934 1.551109 -1.256952 -15.009515 -0.000001 0.000002 0.000001 0.863999 -5.171142 -11.645881 1.544692 -3.773586 21.274074 1.518838 3.372978 -14.229405 0.000001 -0.000002 0.000001 1.777559 -11.827269 -9.453287 1.762680 -2.960315 20.651840 1.681427 -2.762151 9.417833 0.000001 0.000000 0.000000 2.612854 -21.378202 -4.080151 5.314409 -1.204969 0.000165 7.953929 -5.178068 14.067354 -0.000000 -0.000001 -0.000003 -80.517999 -19.761243 30.576780 65.291370 0.514167 7.410983 13.084272 -1.265486 1.366601 0.031757 -0.007724 0.000040 -0.000000 0.000001 -0.000003 -126.366095 -52.061522 0.492973 120.221233 7.566185 -16.690402 24.795158 0.920808 26.644022 0.004143 0.000171 -0.000325 0.000001 0.000000 0.000000 
0.451338 146.658569 8.452595 3.693972 -36.496863 4.005165 31.619965 -5.853043 -10.388199 14.124496 0.962687 -3.082694 0.000000 0.000000 0.000000 14.081436 0.915136 -3.297779 -8.636856 21.467483 -12.828434 -25.291750 13.718660 5.212692 0.000002 0.000000 0.000001 11.372215 -16.443315 3.967052 0.000000 0.000000 0.000000 -62.208065 -4.571386 -3.790329 45.710454 -23.896264 29.381213 -13.152810 31.668350 18.894692 40.109924 -15.297098 -0.360433 5.639830 28.097621 11.338688 1.088581 40.896758 22.734013 -0.000001 0.000002 -0.000000 6.882233 2.840053 -61.140411 8.247932 7.639974 -89.897953 2.146320 8.173657 -41.827757 0.000004 -0.000002 -0.000001 -2.345516 4.688839 -62.655327 8.754100 9.897123 -87.051116 1.995391 4.929274 -37.483306 0.000000 -0.000001 -0.000001 -9.042534 10.045656 -60.766322 8.524078 9.508819 -66.893076 6.576499 9.896711 -70.384976 -0.000001 -0.000002 -0.000001 -17.946952 14.754954 -51.485816 8.868419 8.667071 -84.811955 4.540355 8.852505 -59.153038 0.000002 0.000001 0.000001 18.029171 24.259189 -9.213514 0.000000 0.000000 0.000000 -32.985555 6.584519 2.975912 -41.769793 39.073675 29.004699 -2.558818 7.327785 -19.065143 -1.525702 -5.490522 13.054251 1.517211 -22.702499 -8.022592 -6.615018 18.786685 8.531368 0.000000 -0.000002 0.000000 1.264160 4.823527 -8.200511 0.528600 0.186455 7.355374 0.908701 -0.830002 -14.364492 -0.000000 -0.000002 0.000001 0.874206 -5.218027 -11.333225 1.587298 -3.878976 22.059952 1.505055 3.329495 -13.916554 -0.000000 0.000002 -0.000002 1.813556 -11.822567 -9.179911 1.792575 -3.024132 21.110296 1.691542 -2.800340 9.683760 -0.000001 0.000001 0.000002 2.626231 -21.407370 -3.836564 5.351737 -1.276964 0.651227 7.972227 -5.183698 14.309043 -0.000000 0.000001 0.000001 -80.524331 -19.746096 30.578053 65.280038 0.466751 7.384258 13.112490 -1.146371 1.274342 0.026807 -0.007768 0.000042 0.000000 -0.000000 -0.000001 -126.120413 -52.043125 0.495688 120.117073 7.665030 -16.683994 24.618929 0.885121 26.537757 0.004721 0.000156 -0.000337 0.000001 0.000000 -0.000002 
0.448734 146.647308 8.427849 3.719901 -36.586229 4.060331 31.612144 -5.867731 -10.393797 14.121952 0.959999 -3.082255 0.000000 0.000000 0.000000 14.068808 0.912814 -3.297127 -8.610262 21.493191 -12.821319 -25.195738 13.750095 5.199516 -0.000002 -0.000000 -0.000000 11.267125 -16.494272 3.552191 0.000000 0.000000 0.000000 -61.836373 -4.277150 -3.867889 45.655320 -23.778503 29.256692 -13.315563 31.475093 18.907557 40.109920 -15.297100 -0.360431 5.639827 28.097624 11.338688 1.088578 40.896762 22.734020 0.000000 -0.000001 0.000000 6.882232 2.840049 -61.140411 8.247930 7.639976 -89.897953 2.146324 8.173663 -41.827764 -0.000000 0.000000 0.000003 -2.345515 4.688834 -62.655320 8.754104 9.897120 -87.051116 1.995387 4.929278 -37.483310 0.000003 -0.000000 -0.000002 -9.042538 10.045655 -60.766322 8.524078 9.508820 -66.893083 6.576494 9.896709 -70.384976 0.000003 -0.000001 0.000001 -17.946952 14.754950 -51.485816 8.868430 8.667065 -84.811955 4.540362 8.852510 -59.153038 -0.000002 0.000003 0.000000 17.871441 24.380038 -8.840623 0.000000 0.000000 0.000000 -32.509658 6.730321 2.966681 -41.608088 38.845164 28.745691 -2.194470 7.735474 -18.572659 -1.525702 -5.490517 13.054249 1.517212 -22.702497 -8.022588 -6.615015 18.786683 8.531372 -0.000001 0.000002 0.000003 1.252744 4.791391 -7.959533 0.537556 0.056532 8.312884 0.255119 -0.418515 -13.711291 0.000001 0.000002 0.000001 0.884692 -5.264783 -11.020563 1.631335 -3.983805 22.846015 1.491531 3.285897 -13.603668 -0.000000 -0.000002 0.000000 1.849487 -11.817699 -8.906598 1.822946 -3.087670 21.568788 1.701862 -2.838471 9.949701 -0.000000 0.000001 0.000001 2.639517 -21.436431 -3.593008 5.390296 -1.348512 1.586686 7.990588 -5.189243 14.550765 -0.000000 0.000001 0.000001 -80.518990 -19.713645 30.573969 65.256071 0.447620 7.372141 13.057565 -1.060236 1.234722 0.022384 -0.007746 0.000012 0.000000 -0.000000 -0.000001 -125.842356 -52.028321 0.508558 120.014784 7.786802 -16.678424 24.409471 0.842140 26.422083 0.005020 0.000196 -0.000320 -0.000000 0.000000 0.000002 
0.447863 146.634399 8.406014 3.746775 -36.652687 4.114614 31.598767 -5.882189 -10.397104 14.106479 0.954764 -3.080992 0.000000 0.000000 0.000000 14.049164 0.908813 -3.295748 -8.563397 21.515697 -12.819797 -25.070493 13.794751 5.150473 -0.000000 -0.000000 0.000000 11.178839 -16.526059 3.162664 0.000000 0.000000 0.000000 -61.569443 -3.861275 -3.799277 45.619718 -23.701716 29.176936 -13.445436 31.206380 18.883637 40.109927 -15.297097 -0.360436 5.639831 28.097628 11.338687 1.088578 40.896758 22.734020 0.000000 -0.000002 0.000001 6.882233 2.840057 -61.140411 8.247933 7.639978 -89.897959 2.146316 8.173662 -41.827768 -0.000001 0.000003 0.000001 -2.345516 4.688844 -62.655320 8.754099 9.897119 -87.051116 1.995387 4.929272 -37.483310 0.000000 -0.000001 0.000001 -9.042538 10.045658 -60.766322 8.524076 9.508817 -66.893076 6.576497 9.896711 -70.384976 0.000003 0.000000 0.000001 -17.946952 14.754954 -51.485816 8.868422 8.667064 -84.811948 4.540357 8.852507 -59.153038 0.000000 0.000002 0.000000 17.715211 24.468459 -8.495871 0.000000 0.000000 0.000000 -32.128862 6.751248 2.910642 -41.451407 38.621393 28.494036 -1.622676 7.766565 -18.155249 -1.525703 -5.490523 13.054250 1.517214 -22.702499 -8.022596 -6.615013 18.786683 8.531383 -0.000001 -0.000002 0.000002 1.241612 4.759410 -7.720697 0.548543 -0.072033 9.261815 -0.403529 -0.026206 -13.055865 -0.000001 0.000000 -0.000001 0.895323 -5.311141 -10.710613 1.676469 -4.087032 23.625244 1.478309 3.242656 -13.293603 -0.000000 0.000001 -0.000001 1.885091 -11.812653 -8.635662 1.853579 -3.150463 22.023212 1.712228 -2.876271 10.213289 0.000001 0.000000 0.000003 2.652746 -21.465169 -3.351512 5.429579 -1.418821 2.513887 8.008836 -5.194680 14.790291 -0.000002 0.000001 0.000000 -80.503553 -19.688597 30.573395 65.212727 0.441523 7.368067 13.052048 -1.015599 1.158576 0.025233 -0.007691 0.000017 0.000000 0.000000 -0.000004 -125.555433 -51.992947 0.528899 119.900597 7.876454 -16.673352 24.210258 0.803567 26.353993 0.005138 0.000155 -0.000359 0.000000 0.000000 -0.000000 
